<?xml version="1.0" standalone="no"?>
<!DOCTYPE svg PUBLIC "-//W3C//DTD SVG 20010904//EN"
 "http://www.w3.org/TR/2001/REC-SVG-20010904/DTD/svg10.dtd">
<svg version="1.0" xmlns="http://www.w3.org/2000/svg"
 width="1224.000000pt" height="792.000000pt" viewBox="0 0 1224.000000 792.000000"
 preserveAspectRatio="xMidYMid meet">

<g transform="translate(0.000000,792.000000) scale(0.100000,-0.100000)"
fill="#000000" stroke="none">
<path d="M4925 6098 c0 -40 -2 -82 -5 -93 -5 -18 1 -20 80 -26 106 -8 153 -21
255 -69 242 -115 425 -380 479 -695 20 -116 20 -324 0 -440 -47 -276 -205
-593 -443 -889 -17 -21 -31 -42 -31 -46 0 -4 13 -10 30 -13 17 -4 48 -26 73
-51 l43 -45 81 107 c153 203 256 378 323 547 90 226 120 377 120 608 0 246
-37 420 -131 609 -60 122 -106 186 -209 288 -170 169 -355 255 -590 274 l-75
6 0 -72z"/>
<path d="M2882 6125 c-262 -90 -455 -264 -587 -530 -99 -199 -141 -409 -132
-650 7 -167 24 -270 73 -419 78 -242 201 -463 404 -729 64 -84 77 -96 85 -81
20 35 80 96 102 105 23 8 22 10 -35 81 -210 260 -375 588 -428 854 -24 122
-24 356 0 479 46 228 135 396 289 542 66 62 107 91 179 126 51 25 112 51 136
57 38 10 42 13 35 33 -4 12 -8 52 -8 90 0 80 -1 80 -113 42z"/>
<path d="M9375 3974 c-191 -39 -331 -123 -429 -257 -75 -102 -122 -266 -114
-394 l5 -73 -51 -31 c-83 -51 -230 -175 -317 -267 -68 -73 -149 -175 -244
-307 -58 -79 -167 -276 -256 -460 -97 -201 -116 -230 -174 -266 -44 -28 -147
-26 -205 4 -69 34 -90 84 -90 213 0 113 34 273 68 322 63 88 140 299 128 347
-18 71 -125 134 -205 121 -70 -11 -110 -65 -192 -260 -50 -116 -74 -138 -205
-185 -168 -61 -221 -63 -255 -8 -26 44 -24 76 16 201 40 125 43 158 15 203
-42 69 -167 100 -238 58 -40 -24 -84 -110 -108 -211 -50 -209 -118 -398 -186
-512 -44 -75 -160 -191 -228 -227 -45 -24 -67 -30 -122 -30 -63 0 -69 2 -102
34 -55 53 -79 120 -84 231 l-4 95 68 92 c77 102 137 209 184 328 28 71 30 84
21 116 -18 61 -103 119 -171 119 -35 0 -125 -54 -182 -107 -96 -91 -202 -272
-224 -382 -8 -37 -70 -74 -125 -73 -82 1 -173 85 -206 188 -18 58 -20 52 37
154 35 64 38 111 10 158 -31 50 -75 72 -145 72 -66 0 -89 -11 -142 -68 -33
-34 -93 -144 -93 -168 0 -19 -141 -302 -185 -370 -88 -137 -203 -222 -286
-211 -85 11 -135 81 -149 207 -5 44 -14 89 -20 100 -10 19 -12 19 -43 4 -46
-25 -126 -22 -175 6 -49 28 -63 23 -87 -27 -16 -34 -17 -47 -7 -115 54 -369
416 -563 744 -397 141 71 243 173 343 343 9 16 11 16 30 -2 43 -39 126 -90
191 -117 55 -22 91 -28 175 -32 l106 -6 17 -71 c56 -234 255 -376 526 -376
115 0 190 17 289 67 126 63 261 213 355 393 16 30 30 56 31 58 1 1 24 -8 51
-20 43 -20 64 -23 179 -22 103 0 143 5 191 21 l62 20 4 -111 c3 -103 6 -116
39 -187 122 -256 461 -359 753 -230 30 13 76 49 120 94 63 64 81 92 164 255
115 228 166 319 255 452 130 195 240 326 359 426 l89 75 76 -71 c83 -78 197
-140 291 -159 67 -14 202 -14 273 -1 61 12 180 65 237 106 111 82 204 223 237
361 23 97 17 251 -14 343 -53 156 -172 292 -316 361 -115 56 -265 82 -360 63z
m285 -196 c174 -85 281 -267 267 -457 -13 -184 -122 -334 -297 -408 -58 -24
-78 -27 -175 -27 -98 0 -117 3 -177 28 -88 36 -192 131 -237 215 -42 79 -65
187 -56 265 18 161 116 306 254 376 90 45 112 50 231 47 110 -2 119 -4 190
-39z"/>
<path d="M9383 3730 c-156 -33 -277 -159 -304 -316 -10 -59 -10 -80 5 -143 27
-123 96 -210 212 -267 53 -26 69 -29 159 -29 88 0 107 3 157 27 262 123 306
476 81 652 -83 64 -213 96 -310 76z"/>
<path d="M2805 1325 c-5 -2 -22 -6 -37 -9 -34 -8 -94 -59 -114 -97 -17 -33
-19 -131 -3 -162 17 -33 60 -77 94 -95 23 -13 67 -17 195 -20 150 -3 167 -6
188 -25 31 -29 29 -77 -4 -108 -25 -24 -29 -24 -242 -27 -134 -2 -221 -7 -229
-14 -18 -15 -16 -63 3 -82 13 -14 48 -16 227 -16 117 0 228 4 246 10 19 5 48
22 64 37 99 94 86 245 -27 314 -27 16 -51 19 -182 19 -200 0 -234 13 -234 89
0 32 20 58 57 72 13 5 105 9 204 9 l179 0 11 26 c13 35 3 63 -28 75 -22 8
-344 12 -368 4z"/>
<path d="M3362 1314 c-22 -15 -22 -17 -22 -313 0 -276 1 -299 18 -314 23 -21
46 -22 66 -1 13 13 16 44 16 178 0 195 12 248 70 306 67 67 158 67 222 -1 56
-59 68 -113 68 -306 0 -161 0 -163 25 -179 30 -19 63 -10 70 19 2 12 6 99 7
192 3 167 4 171 33 223 34 63 71 92 124 99 53 7 104 -12 140 -52 49 -56 61
-117 61 -302 l0 -163 25 -16 c21 -14 31 -15 50 -6 l25 12 0 188 c0 213 -10
264 -63 334 -51 67 -116 102 -199 106 -89 5 -143 -15 -204 -75 l-45 -46 -30
36 c-73 89 -215 114 -323 58 -51 -27 -56 -28 -56 -11 0 16 -34 50 -50 50 -3 0
-16 -7 -28 -16z"/>
<path d="M5193 1315 c-23 -16 -23 -17 -23 -315 l0 -300 25 -16 c23 -15 27 -15
50 0 25 16 25 19 25 146 l0 130 88 0 87 0 79 -139 c53 -93 86 -141 100 -145
28 -7 66 19 66 46 0 12 -27 67 -60 124 -33 56 -60 104 -60 107 0 2 18 7 39 11
153 24 186 258 47 337 -39 23 -52 24 -241 27 -172 3 -203 1 -222 -13z m427
-115 c31 -31 27 -93 -6 -119 -24 -19 -40 -21 -185 -21 l-159 0 0 80 0 80 165
0 c152 0 167 -2 185 -20z"/>
<path d="M6522 1314 c-22 -15 -22 -17 -22 -313 0 -276 1 -299 18 -314 23 -21
46 -22 66 -1 13 13 16 44 16 178 0 195 12 248 70 306 67 67 158 67 222 -1 56
-59 68 -113 68 -306 0 -161 0 -163 25 -179 30 -19 63 -10 70 19 2 12 6 99 7
192 3 167 4 171 33 223 34 63 71 92 124 99 53 7 104 -12 140 -52 49 -56 61
-117 61 -302 l0 -163 25 -16 c21 -14 31 -15 50 -6 l25 12 0 188 c0 213 -10
264 -63 334 -51 67 -116 102 -199 106 -89 5 -143 -15 -204 -75 l-45 -46 -30
36 c-73 89 -215 114 -323 58 -51 -27 -56 -28 -56 -11 0 16 -34 50 -50 50 -3 0
-16 -7 -28 -16z"/>
<path d="M8862 1314 c-22 -15 -22 -17 -22 -313 0 -276 1 -299 18 -314 24 -22
45 -21 65 1 15 16 17 53 17 315 0 294 0 296 -22 311 -12 9 -25 16 -28 16 -3 0
-16 -7 -28 -16z"/>
<path d="M9277 1320 c-96 -17 -183 -87 -230 -188 -26 -56 -29 -70 -25 -145 4
-96 30 -159 91 -220 61 -61 136 -91 228 -91 66 0 86 5 142 32 105 52 153 124
111 166 -24 24 -41 20 -88 -24 -80 -74 -168 -90 -261 -46 -60 28 -77 46 -106
110 -58 132 33 287 177 304 67 7 128 -15 185 -66 45 -40 54 -44 77 -36 41 14
42 62 2 108 -64 72 -195 114 -303 96z"/>
<path d="M4640 1303 c-28 -10 -67 -39 -106 -77 -87 -87 -94 -114 -94 -348 l0
-188 25 -12 c19 -9 29 -8 50 6 25 16 25 18 25 146 l0 130 220 0 220 0 0 -125
c0 -112 2 -127 20 -145 26 -26 45 -25 71 1 20 20 21 29 17 203 -3 170 -5 184
-30 237 -30 66 -89 129 -150 160 -57 30 -201 36 -268 12z m221 -106 c44 -24
109 -96 109 -123 0 -12 -35 -14 -210 -14 -115 0 -210 3 -210 7 0 21 54 93 87
115 50 34 58 36 124 37 40 1 68 -5 100 -22z"/>
<path d="M5790 1301 c-14 -28 -13 -38 10 -61 18 -18 33 -20 140 -20 l120 0 0
-259 c0 -223 2 -262 16 -275 19 -20 34 -20 62 0 22 15 22 18 22 275 l0 259
118 0 c137 0 155 7 150 60 l-3 35 -312 3 c-301 2 -313 2 -323 -17z"/>
<path d="M7622 1308 c-9 -9 -12 -91 -12 -309 0 -296 0 -298 22 -313 19 -13 59
-16 236 -16 128 0 221 4 233 10 13 7 19 21 19 45 0 24 -6 38 -19 45 -12 6 -96
10 -205 10 l-186 0 0 90 0 90 150 0 c137 0 150 2 160 19 14 27 13 47 -6 65
-13 13 -42 16 -160 16 l-144 0 0 80 0 80 186 0 c109 0 193 4 205 10 22 12 26
59 7 78 -17 17 -469 17 -486 0z"/>
<path d="M8212 1308 c-15 -15 -17 -595 -2 -618 8 -12 36 -15 152 -15 136 1
146 2 205 29 72 33 134 94 165 164 16 36 22 67 22 132 0 74 -3 92 -29 143 -34
68 -87 120 -159 153 -46 22 -64 24 -196 24 -100 0 -150 -4 -158 -12z m301
-101 c151 -64 188 -258 70 -369 -46 -44 -93 -58 -193 -58 l-90 0 0 220 0 220
90 0 c54 0 104 -6 123 -13z"/>
</g>
</svg>
